<svg id="Ebene_1" data-name="Ebene 1" xmlns="http://www.w3.org/2000/svg" viewBox="0 0 841.89 595.28"><defs><style>.cls-1,.cls-5{fill:none;}.cls-2{fill:#f8f4b9;}.cls-11,.cls-3{fill:#ebc7e0;}.cls-10,.cls-4{fill:#a9dbeb;}.cls-10,.cls-11,.cls-5,.cls-9{font-size:178px;font-family:AbrilFatface-Regular, Abril Fatface;}.cls-5{stroke:#f9f4b8;stroke-width:7px;}.cls-6{letter-spacing:-0.02em;}.cls-7{letter-spacing:-0.06em;}.cls-8{letter-spacing:-0.03em;}.cls-9{fill:#e83a8d;}</style></defs><rect class="cls-1" width="841.89" height="595.28"/><circle class="cls-2" cx="385.55" cy="261.37" r="186.25"/><circle class="cls-3" cx="385.55" cy="261.37" r="180.44"/><circle class="cls-4" cx="385.55" cy="261.37" r="174.79"/><circle class="cls-2" cx="385.55" cy="261.37" r="169.82"/><text class="cls-5" transform="matrix(1, -0.14, 0, 1, 130.82, 366.48)">So<tspan class="cls-6" x="203.45" y="0">r</tspan><tspan class="cls-7" x="288.89" y="0">a</tspan><tspan class="cls-8" x="375.94" y="0">y</tspan><tspan x="465.29" y="0">a</tspan></text><text class="cls-5" transform="matrix(1, -0.14, 0, 1, 130.25, 365.92)">So<tspan class="cls-6" x="203.45" y="0">r</tspan><tspan class="cls-7" x="288.89" y="0">a</tspan><tspan class="cls-8" x="375.94" y="0">y</tspan><tspan x="465.29" y="0">a</tspan></text><text class="cls-5" transform="matrix(1, -0.14, 0, 1, 129.68, 365.35)">So<tspan class="cls-6" x="203.45" y="0">r</tspan><tspan class="cls-7" x="288.89" y="0">a</tspan><tspan class="cls-8" x="375.94" y="0">y</tspan><tspan x="465.29" y="0">a</tspan></text><text class="cls-5" transform="matrix(1, -0.14, 0, 1, 129.12, 364.78)">So<tspan class="cls-6" x="203.45" y="0">r</tspan><tspan class="cls-7" x="288.89" y="0">a</tspan><tspan class="cls-8" x="375.94" y="0">y</tspan><tspan x="465.29" y="0">a</tspan></text><text class="cls-5" transform="matrix(1, -0.14, 0, 1, 128.55, 364.22)">So<tspan class="cls-6" x="203.45" y="0">r</tspan><tspan class="cls-7" x="288.89" y="0">a</tspan><tspan class="cls-8" x="375.94" y="0">y</tspan><tspan x="465.29" y="0">a</tspan></text><text class="cls-5" transform="matrix(1, -0.14, 0, 1, 127.98, 363.65)">So<tspan class="cls-6" x="203.45" y="0">r</tspan><tspan class="cls-7" x="288.89" y="0">a</tspan><tspan class="cls-8" x="375.94" y="0">y</tspan><tspan x="465.29" y="0">a</tspan></text><text class="cls-5" transform="matrix(1, -0.14, 0, 1, 127.42, 363.08)">So<tspan class="cls-6" x="203.45" y="0">r</tspan><tspan class="cls-7" x="288.89" y="0">a</tspan><tspan class="cls-8" x="375.94" y="0">y</tspan><tspan x="465.29" y="0">a</tspan></text><text class="cls-5" transform="matrix(1, -0.14, 0, 1, 126.85, 362.52)">So<tspan class="cls-6" x="203.45" y="0">r</tspan><tspan class="cls-7" x="288.89" y="0">a</tspan><tspan class="cls-8" x="375.94" y="0">y</tspan><tspan x="465.29" y="0">a</tspan></text><text class="cls-5" transform="matrix(1, -0.14, 0, 1, 126.28, 361.95)">So<tspan class="cls-6" x="203.45" y="0">r</tspan><tspan class="cls-7" x="288.89" y="0">a</tspan><tspan class="cls-8" x="375.94" y="0">y</tspan><tspan x="465.29" y="0">a</tspan></text><text class="cls-5" transform="matrix(1, -0.14, 0, 1, 125.72, 361.38)">So<tspan class="cls-6" x="203.45" y="0">r</tspan><tspan class="cls-7" x="288.89" y="0">a</tspan><tspan class="cls-8" x="375.94" y="0">y</tspan><tspan x="465.29" y="0">a</tspan></text><text class="cls-5" transform="matrix(1, -0.14, 0, 1, 125.15, 360.81)">So<tspan class="cls-6" x="203.45" y="0">r</tspan><tspan class="cls-7" x="288.89" y="0">a</tspan><tspan class="cls-8" x="375.94" y="0">y</tspan><tspan x="465.29" y="0">a</tspan></text><text class="cls-5" transform="matrix(1, -0.14, 0, 1, 124.58, 360.25)">So<tspan class="cls-6" x="203.45" y="0">r</tspan><tspan class="cls-7" x="288.89" y="0">a</tspan><tspan class="cls-8" x="375.94" y="0">y</tspan><tspan x="465.29" y="0">a</tspan></text><text class="cls-5" transform="matrix(1, -0.14, 0, 1, 124.02, 359.68)">So<tspan class="cls-6" x="203.45" y="0">r</tspan><tspan class="cls-7" x="288.89" y="0">a</tspan><tspan class="cls-8" x="375.94" y="0">y</tspan><tspan x="465.29" y="0">a</tspan></text><text class="cls-5" transform="matrix(1, -0.14, 0, 1, 123.45, 359.11)">So<tspan class="cls-6" x="203.45" y="0">r</tspan><tspan class="cls-7" x="288.89" y="0">a</tspan><tspan class="cls-8" x="375.94" y="0">y</tspan><tspan x="465.29" y="0">a</tspan></text><text class="cls-5" transform="matrix(1, -0.14, 0, 1, 122.88, 358.55)">So<tspan class="cls-6" x="203.45" y="0">r</tspan><tspan class="cls-7" x="288.89" y="0">a</tspan><tspan class="cls-8" x="375.94" y="0">y</tspan><tspan x="465.29" y="0">a</tspan></text><text class="cls-5" transform="matrix(1, -0.14, 0, 1, 122.31, 357.98)">So<tspan class="cls-6" x="203.45" y="0">r</tspan><tspan class="cls-7" x="288.89" y="0">a</tspan><tspan class="cls-8" x="375.94" y="0">y</tspan><tspan x="465.29" y="0">a</tspan></text><text class="cls-5" transform="matrix(1, -0.14, 0, 1, 121.75, 357.41)">So<tspan class="cls-6" x="203.45" y="0">r</tspan><tspan class="cls-7" x="288.89" y="0">a</tspan><tspan class="cls-8" x="375.94" y="0">y</tspan><tspan x="465.29" y="0">a</tspan></text><text class="cls-5" transform="matrix(1, -0.14, 0, 1, 121.18, 356.85)">So<tspan class="cls-6" x="203.45" y="0">r</tspan><tspan class="cls-7" x="288.89" y="0">a</tspan><tspan class="cls-8" x="375.94" y="0">y</tspan><tspan x="465.29" y="0">a</tspan></text><text class="cls-5" transform="matrix(1, -0.14, 0, 1, 120.61, 356.28)">So<tspan class="cls-6" x="203.45" y="0">r</tspan><tspan class="cls-7" x="288.89" y="0">a</tspan><tspan class="cls-8" x="375.94" y="0">y</tspan><tspan x="465.29" y="0">a</tspan></text><text class="cls-5" transform="matrix(1, -0.14, 0, 1, 120.05, 355.71)">So<tspan class="cls-6" x="203.45" y="0">r</tspan><tspan class="cls-7" x="288.89" y="0">a</tspan><tspan class="cls-8" x="375.94" y="0">y</tspan><tspan x="465.29" y="0">a</tspan></text><text class="cls-5" transform="matrix(1, -0.14, 0, 1, 119.48, 355.15)">So<tspan class="cls-6" x="203.45" y="0">r</tspan><tspan class="cls-7" x="288.89" y="0">a</tspan><tspan class="cls-8" x="375.94" y="0">y</tspan><tspan x="465.29" y="0">a</tspan></text><text class="cls-5" transform="matrix(1, -0.14, 0, 1, 118.91, 354.58)">So<tspan class="cls-6" x="203.45" y="0">r</tspan><tspan class="cls-7" x="288.89" y="0">a</tspan><tspan class="cls-8" x="375.94" y="0">y</tspan><tspan x="465.29" y="0">a</tspan></text><text class="cls-5" transform="matrix(1, -0.14, 0, 1, 118.35, 354.01)">So<tspan class="cls-6" x="203.45" y="0">r</tspan><tspan class="cls-7" x="288.89" y="0">a</tspan><tspan class="cls-8" x="375.94" y="0">y</tspan><tspan x="465.29" y="0">a</tspan></text><text class="cls-5" transform="matrix(1, -0.14, 0, 1, 117.78, 353.44)">So<tspan class="cls-6" x="203.45" y="0">r</tspan><tspan class="cls-7" x="288.89" y="0">a</tspan><tspan class="cls-8" x="375.94" y="0">y</tspan><tspan x="465.29" y="0">a</tspan></text><text class="cls-5" transform="matrix(1, -0.14, 0, 1, 117.21, 352.88)">So<tspan class="cls-6" x="203.45" y="0">r</tspan><tspan class="cls-7" x="288.89" y="0">a</tspan><tspan class="cls-8" x="375.94" y="0">y</tspan><tspan x="465.29" y="0">a</tspan></text><text class="cls-5" transform="matrix(1, -0.14, 0, 1, 116.64, 352.31)">So<tspan class="cls-6" x="203.45" y="0">r</tspan><tspan class="cls-7" x="288.89" y="0">a</tspan><tspan class="cls-8" x="375.94" y="0">y</tspan><tspan x="465.29" y="0">a</tspan></text><text class="cls-5" transform="matrix(1, -0.14, 0, 1, 116.08, 351.74)">So<tspan class="cls-6" x="203.45" y="0">r</tspan><tspan class="cls-7" x="288.89" y="0">a</tspan><tspan class="cls-8" x="375.94" y="0">y</tspan><tspan x="465.29" y="0">a</tspan></text><text class="cls-5" transform="matrix(1, -0.14, 0, 1, 115.51, 351.18)">So<tspan class="cls-6" x="203.45" y="0">r</tspan><tspan class="cls-7" x="288.89" y="0">a</tspan><tspan class="cls-8" x="375.94" y="0">y</tspan><tspan x="465.29" y="0">a</tspan></text><text class="cls-5" transform="matrix(1, -0.14, 0, 1, 114.94, 350.61)">So<tspan class="cls-6" x="203.45" y="0">r</tspan><tspan class="cls-7" x="288.89" y="0">a</tspan><tspan class="cls-8" x="375.94" y="0">y</tspan><tspan x="465.29" y="0">a</tspan></text><text class="cls-5" transform="matrix(1, -0.14, 0, 1, 114.38, 350.04)">So<tspan class="cls-6" x="203.45" y="0">r</tspan><tspan class="cls-7" x="288.89" y="0">a</tspan><tspan class="cls-8" x="375.94" y="0">y</tspan><tspan x="465.29" y="0">a</tspan></text><text class="cls-5" transform="matrix(1, -0.14, 0, 1, 113.81, 349.48)">So<tspan class="cls-6" x="203.45" y="0">r</tspan><tspan class="cls-7" x="288.89" y="0">a</tspan><tspan class="cls-8" x="375.94" y="0">y</tspan><tspan x="465.29" y="0">a</tspan></text><text class="cls-5" transform="matrix(1, -0.14, 0, 1, 113.24, 348.91)">So<tspan class="cls-6" x="203.45" y="0">r</tspan><tspan class="cls-7" x="288.89" y="0">a</tspan><tspan class="cls-8" x="375.94" y="0">y</tspan><tspan x="465.29" y="0">a</tspan></text><text class="cls-5" transform="matrix(1, -0.14, 0, 1, 112.68, 348.34)">So<tspan class="cls-6" x="203.45" y="0">r</tspan><tspan class="cls-7" x="288.89" y="0">a</tspan><tspan class="cls-8" x="375.94" y="0">y</tspan><tspan x="465.29" y="0">a</tspan></text><text class="cls-5" transform="matrix(1, -0.14, 0, 1, 112.11, 347.77)">So<tspan class="cls-6" x="203.45" y="0">r</tspan><tspan class="cls-7" x="288.89" y="0">a</tspan><tspan class="cls-8" x="375.94" y="0">y</tspan><tspan x="465.29" y="0">a</tspan></text><text class="cls-5" transform="matrix(1, -0.14, 0, 1, 111.54, 347.21)">So<tspan class="cls-6" x="203.45" y="0">r</tspan><tspan class="cls-7" x="288.89" y="0">a</tspan><tspan class="cls-8" x="375.94" y="0">y</tspan><tspan x="465.29" y="0">a</tspan></text><text class="cls-5" transform="matrix(1, -0.14, 0, 1, 110.98, 346.64)">So<tspan class="cls-6" x="203.45" y="0">r</tspan><tspan class="cls-7" x="288.89" y="0">a</tspan><tspan class="cls-8" x="375.94" y="0">y</tspan><tspan x="465.29" y="0">a</tspan></text><text class="cls-5" transform="matrix(1, -0.14, 0, 1, 110.41, 346.07)">So<tspan class="cls-6" x="203.45" y="0">r</tspan><tspan class="cls-7" x="288.89" y="0">a</tspan><tspan class="cls-8" x="375.94" y="0">y</tspan><tspan x="465.29" y="0">a</tspan></text><text class="cls-5" transform="matrix(1, -0.14, 0, 1, 109.84, 345.51)">So<tspan class="cls-6" x="203.45" y="0">r</tspan><tspan class="cls-7" x="288.89" y="0">a</tspan><tspan class="cls-8" x="375.94" y="0">y</tspan><tspan x="465.29" y="0">a</tspan></text><text class="cls-5" transform="matrix(1, -0.14, 0, 1, 109.27, 344.94)">So<tspan class="cls-6" x="203.45" y="0">r</tspan><tspan class="cls-7" x="288.89" y="0">a</tspan><tspan class="cls-8" x="375.94" y="0">y</tspan><tspan x="465.29" y="0">a</tspan></text><text class="cls-5" transform="matrix(1, -0.14, 0, 1, 108.71, 344.37)">So<tspan class="cls-6" x="203.45" y="0">r</tspan><tspan class="cls-7" x="288.89" y="0">a</tspan><tspan class="cls-8" x="375.94" y="0">y</tspan><tspan x="465.29" y="0">a</tspan></text><text class="cls-5" transform="matrix(1, -0.14, 0, 1, 108.14, 343.81)">So<tspan class="cls-6" x="203.45" y="0">r</tspan><tspan class="cls-7" x="288.89" y="0">a</tspan><tspan class="cls-8" x="375.94" y="0">y</tspan><tspan x="465.29" y="0">a</tspan></text><text class="cls-5" transform="matrix(1, -0.14, 0, 1, 107.57, 343.24)">So<tspan class="cls-6" x="203.45" y="0">r</tspan><tspan class="cls-7" x="288.89" y="0">a</tspan><tspan class="cls-8" x="375.94" y="0">y</tspan><tspan x="465.29" y="0">a</tspan></text><text class="cls-5" transform="matrix(1, -0.14, 0, 1, 107.01, 342.67)">So<tspan class="cls-6" x="203.45" y="0">r</tspan><tspan class="cls-7" x="288.89" y="0">a</tspan><tspan class="cls-8" x="375.94" y="0">y</tspan><tspan x="465.29" y="0">a</tspan></text><text class="cls-5" transform="matrix(1, -0.14, 0, 1, 106.44, 342.11)">So<tspan class="cls-6" x="203.45" y="0">r</tspan><tspan class="cls-7" x="288.89" y="0">a</tspan><tspan class="cls-8" x="375.94" y="0">y</tspan><tspan x="465.29" y="0">a</tspan></text><text class="cls-5" transform="matrix(1, -0.14, 0, 1, 105.87, 341.54)">So<tspan class="cls-6" x="203.45" y="0">r</tspan><tspan class="cls-7" x="288.89" y="0">a</tspan><tspan class="cls-8" x="375.94" y="0">y</tspan><tspan x="465.29" y="0">a</tspan></text><text class="cls-5" transform="matrix(1, -0.14, 0, 1, 105.31, 340.97)">So<tspan class="cls-6" x="203.45" y="0">r</tspan><tspan class="cls-7" x="288.89" y="0">a</tspan><tspan class="cls-8" x="375.94" y="0">y</tspan><tspan x="465.29" y="0">a</tspan></text><text class="cls-5" transform="matrix(1, -0.14, 0, 1, 104.74, 340.4)">So<tspan class="cls-6" x="203.45" y="0">r</tspan><tspan class="cls-7" x="288.89" y="0">a</tspan><tspan class="cls-8" x="375.94" y="0">y</tspan><tspan x="465.29" y="0">a</tspan></text><text class="cls-5" transform="matrix(1, -0.14, 0, 1, 104.17, 339.84)">So<tspan class="cls-6" x="203.45" y="0">r</tspan><tspan class="cls-7" x="288.89" y="0">a</tspan><tspan class="cls-8" x="375.94" y="0">y</tspan><tspan x="465.29" y="0">a</tspan></text><text class="cls-5" transform="matrix(1, -0.14, 0, 1, 103.61, 339.27)">So<tspan class="cls-6" x="203.45" y="0">r</tspan><tspan class="cls-7" x="288.89" y="0">a</tspan><tspan class="cls-8" x="375.94" y="0">y</tspan><tspan x="465.29" y="0">a</tspan></text><text class="cls-5" transform="matrix(1, -0.14, 0, 1, 103.04, 338.7)">So<tspan class="cls-6" x="203.45" y="0">r</tspan><tspan class="cls-7" x="288.89" y="0">a</tspan><tspan class="cls-8" x="375.94" y="0">y</tspan><tspan x="465.29" y="0">a</tspan></text><text class="cls-5" transform="matrix(1, -0.14, 0, 1, 102.47, 338.14)">So<tspan class="cls-6" x="203.45" y="0">r</tspan><tspan class="cls-7" x="288.89" y="0">a</tspan><tspan class="cls-8" x="375.94" y="0">y</tspan><tspan x="465.29" y="0">a</tspan></text><text class="cls-9" transform="matrix(1, -0.14, 0, 1, 102.47, 338.14)">So<tspan class="cls-6" x="203.45" y="0">r</tspan><tspan class="cls-7" x="288.89" y="0">a</tspan><tspan class="cls-8" x="375.94" y="0">y</tspan><tspan x="465.29" y="0">a</tspan></text><text class="cls-10" transform="matrix(1, -0.14, 0, 1, 108.99, 344.66)">So<tspan class="cls-6" x="203.45" y="0">r</tspan><tspan class="cls-7" x="288.89" y="0">a</tspan><tspan class="cls-8" x="375.94" y="0">y</tspan><tspan x="465.29" y="0">a</tspan></text><text class="cls-10" transform="matrix(1, -0.14, 0, 1, 108.71, 344.37)">So<tspan class="cls-6" x="203.45" y="0">r</tspan><tspan class="cls-7" x="288.89" y="0">a</tspan><tspan class="cls-8" x="375.94" y="0">y</tspan><tspan x="465.29" y="0">a</tspan></text><text class="cls-10" transform="matrix(1, -0.14, 0, 1, 108.42, 344.09)">So<tspan class="cls-6" x="203.45" y="0">r</tspan><tspan class="cls-7" x="288.89" y="0">a</tspan><tspan class="cls-8" x="375.94" y="0">y</tspan><tspan x="465.29" y="0">a</tspan></text><text class="cls-10" transform="matrix(1, -0.14, 0, 1, 108.14, 343.81)">So<tspan class="cls-6" x="203.45" y="0">r</tspan><tspan class="cls-7" x="288.89" y="0">a</tspan><tspan class="cls-8" x="375.94" y="0">y</tspan><tspan x="465.29" y="0">a</tspan></text><text class="cls-10" transform="matrix(1, -0.14, 0, 1, 107.86, 343.52)">So<tspan class="cls-6" x="203.45" y="0">r</tspan><tspan class="cls-7" x="288.89" y="0">a</tspan><tspan class="cls-8" x="375.94" y="0">y</tspan><tspan x="465.29" y="0">a</tspan></text><text class="cls-10" transform="matrix(1, -0.14, 0, 1, 107.57, 343.24)">So<tspan class="cls-6" x="203.45" y="0">r</tspan><tspan class="cls-7" x="288.89" y="0">a</tspan><tspan class="cls-8" x="375.94" y="0">y</tspan><tspan x="465.29" y="0">a</tspan></text><text class="cls-10" transform="matrix(1, -0.14, 0, 1, 107.29, 342.96)">So<tspan class="cls-6" x="203.45" y="0">r</tspan><tspan class="cls-7" x="288.89" y="0">a</tspan><tspan class="cls-8" x="375.94" y="0">y</tspan><tspan x="465.29" y="0">a</tspan></text><text class="cls-10" transform="matrix(1, -0.14, 0, 1, 107.01, 342.67)">So<tspan class="cls-6" x="203.45" y="0">r</tspan><tspan class="cls-7" x="288.89" y="0">a</tspan><tspan class="cls-8" x="375.94" y="0">y</tspan><tspan x="465.29" y="0">a</tspan></text><text class="cls-10" transform="matrix(1, -0.14, 0, 1, 106.72, 342.39)">So<tspan class="cls-6" x="203.45" y="0">r</tspan><tspan class="cls-7" x="288.89" y="0">a</tspan><tspan class="cls-8" x="375.94" y="0">y</tspan><tspan x="465.29" y="0">a</tspan></text><text class="cls-10" transform="matrix(1, -0.14, 0, 1, 106.44, 342.11)">So<tspan class="cls-6" x="203.45" y="0">r</tspan><tspan class="cls-7" x="288.89" y="0">a</tspan><tspan class="cls-8" x="375.94" y="0">y</tspan><tspan x="465.29" y="0">a</tspan></text><text class="cls-10" transform="matrix(1, -0.14, 0, 1, 106.16, 341.82)">So<tspan class="cls-6" x="203.45" y="0">r</tspan><tspan class="cls-7" x="288.89" y="0">a</tspan><tspan class="cls-8" x="375.94" y="0">y</tspan><tspan x="465.29" y="0">a</tspan></text><text class="cls-10" transform="matrix(1, -0.14, 0, 1, 105.87, 341.54)">So<tspan class="cls-6" x="203.45" y="0">r</tspan><tspan class="cls-7" x="288.89" y="0">a</tspan><tspan class="cls-8" x="375.94" y="0">y</tspan><tspan x="465.29" y="0">a</tspan></text><text class="cls-10" transform="matrix(1, -0.14, 0, 1, 105.59, 341.26)">So<tspan class="cls-6" x="203.45" y="0">r</tspan><tspan class="cls-7" x="288.89" y="0">a</tspan><tspan class="cls-8" x="375.94" y="0">y</tspan><tspan x="465.29" y="0">a</tspan></text><text class="cls-10" transform="matrix(1, -0.14, 0, 1, 105.31, 340.97)">So<tspan class="cls-6" x="203.45" y="0">r</tspan><tspan class="cls-7" x="288.89" y="0">a</tspan><tspan class="cls-8" x="375.94" y="0">y</tspan><tspan x="465.29" y="0">a</tspan></text><text class="cls-10" transform="matrix(1, -0.14, 0, 1, 105.02, 340.69)">So<tspan class="cls-6" x="203.45" y="0">r</tspan><tspan class="cls-7" x="288.89" y="0">a</tspan><tspan class="cls-8" x="375.94" y="0">y</tspan><tspan x="465.29" y="0">a</tspan></text><text class="cls-10" transform="matrix(1, -0.14, 0, 1, 104.74, 340.4)">So<tspan class="cls-6" x="203.45" y="0">r</tspan><tspan class="cls-7" x="288.89" y="0">a</tspan><tspan class="cls-8" x="375.94" y="0">y</tspan><tspan x="465.29" y="0">a</tspan></text><text class="cls-10" transform="matrix(1, -0.14, 0, 1, 104.46, 340.12)">So<tspan class="cls-6" x="203.45" y="0">r</tspan><tspan class="cls-7" x="288.89" y="0">a</tspan><tspan class="cls-8" x="375.94" y="0">y</tspan><tspan x="465.29" y="0">a</tspan></text><text class="cls-10" transform="matrix(1, -0.14, 0, 1, 104.17, 339.84)">So<tspan class="cls-6" x="203.45" y="0">r</tspan><tspan class="cls-7" x="288.89" y="0">a</tspan><tspan class="cls-8" x="375.94" y="0">y</tspan><tspan x="465.29" y="0">a</tspan></text><text class="cls-10" transform="matrix(1, -0.14, 0, 1, 103.89, 339.55)">So<tspan class="cls-6" x="203.45" y="0">r</tspan><tspan class="cls-7" x="288.89" y="0">a</tspan><tspan class="cls-8" x="375.94" y="0">y</tspan><tspan x="465.29" y="0">a</tspan></text><text class="cls-10" transform="matrix(1, -0.14, 0, 1, 103.61, 339.27)">So<tspan class="cls-6" x="203.45" y="0">r</tspan><tspan class="cls-7" x="288.89" y="0">a</tspan><tspan class="cls-8" x="375.94" y="0">y</tspan><tspan x="465.29" y="0">a</tspan></text><text class="cls-10" transform="matrix(1, -0.14, 0, 1, 103.32, 338.99)">So<tspan class="cls-6" x="203.45" y="0">r</tspan><tspan class="cls-7" x="288.89" y="0">a</tspan><tspan class="cls-8" x="375.94" y="0">y</tspan><tspan x="465.29" y="0">a</tspan></text><text class="cls-10" transform="matrix(1, -0.14, 0, 1, 103.04, 338.7)">So<tspan class="cls-6" x="203.45" y="0">r</tspan><tspan class="cls-7" x="288.89" y="0">a</tspan><tspan class="cls-8" x="375.94" y="0">y</tspan><tspan x="465.29" y="0">a</tspan></text><text class="cls-10" transform="matrix(1, -0.14, 0, 1, 102.76, 338.42)">So<tspan class="cls-6" x="203.45" y="0">r</tspan><tspan class="cls-7" x="288.89" y="0">a</tspan><tspan class="cls-8" x="375.94" y="0">y</tspan><tspan x="465.29" y="0">a</tspan></text><text class="cls-10" transform="matrix(1, -0.14, 0, 1, 102.47, 338.14)">So<tspan class="cls-6" x="203.45" y="0">r</tspan><tspan class="cls-7" x="288.89" y="0">a</tspan><tspan class="cls-8" x="375.94" y="0">y</tspan><tspan x="465.29" y="0">a</tspan></text><text class="cls-11" transform="matrix(1, -0.14, 0, 1, 102.47, 338.14)">So<tspan class="cls-6" x="203.45" y="0">r</tspan><tspan class="cls-7" x="288.89" y="0">a</tspan><tspan class="cls-8" x="375.94" y="0">y</tspan><tspan x="465.29" y="0">a</tspan></text></svg>